<svg id="visual" viewBox="0 0 960 540" width="960" height="540" xmlns="http://www.w3.org/2000/svg" xmlns:xlink="http://www.w3.org/1999/xlink" version="1.1"><rect x="0" y="0" width="960" height="540" fill="#001220"></rect><path d="M0 361L16 359.8C32 358.7 64 356.3 96 357C128 357.7 160 361.3 192 364.5C224 367.7 256 370.3 288 377.5C320 384.7 352 396.3 384 394.7C416 393 448 378 480 380C512 382 544 401 576 409.7C608 418.3 640 416.7 672 411.8C704 407 736 399 768 398.8C800 398.7 832 406.3 864 410.7C896 415 928 416 944 416.5L960 417L960 541L944 541C928 541 896 541 864 541C832 541 800 541 768 541C736 541 704 541 672 541C640 541 608 541 576 541C544 541 512 541 480 541C448 541 416 541 384 541C352 541 320 541 288 541C256 541 224 541 192 541C160 541 128 541 96 541C64 541 32 541 16 541L0 541Z" fill="#4300a9"></path><path d="M0 378L16 379.7C32 381.3 64 384.7 96 393.7C128 402.7 160 417.3 192 421.5C224 425.7 256 419.3 288 416.7C320 414 352 415 384 411.7C416 408.3 448 400.7 480 401.3C512 402 544 411 576 416.5C608 422 640 424 672 424.8C704 425.7 736 425.3 768 419.3C800 413.3 832 401.7 864 398.7C896 395.7 928 401.3 944 404.2L960 407L960 541L944 541C928 541 896 541 864 541C832 541 800 541 768 541C736 541 704 541 672 541C640 541 608 541 576 541C544 541 512 541 480 541C448 541 416 541 384 541C352 541 320 541 288 541C256 541 224 541 192 541C160 541 128 541 96 541C64 541 32 541 16 541L0 541Z" fill="#2e1197"></path><path d="M0 418L16 420.8C32 423.7 64 429.3 96 433C128 436.7 160 438.3 192 433.8C224 429.3 256 418.7 288 422C320 425.3 352 442.7 384 445.2C416 447.7 448 435.3 480 434.7C512 434 544 445 576 443.2C608 441.3 640 426.7 672 421C704 415.3 736 418.7 768 424.2C800 429.7 832 437.3 864 440.8C896 444.3 928 443.7 944 443.3L960 443L960 541L944 541C928 541 896 541 864 541C832 541 800 541 768 541C736 541 704 541 672 541C640 541 608 541 576 541C544 541 512 541 480 541C448 541 416 541 384 541C352 541 320 541 288 541C256 541 224 541 192 541C160 541 128 541 96 541C64 541 32 541 16 541L0 541Z" fill="#1a1684"></path><path d="M0 470L16 468.2C32 466.3 64 462.7 96 457.8C128 453 160 447 192 449.3C224 451.7 256 462.3 288 463.2C320 464 352 455 384 448.8C416 442.7 448 439.3 480 443.3C512 447.3 544 458.7 576 462.5C608 466.3 640 462.7 672 461.5C704 460.3 736 461.7 768 458.3C800 455 832 447 864 443.5C896 440 928 441 944 441.5L960 442L960 541L944 541C928 541 896 541 864 541C832 541 800 541 768 541C736 541 704 541 672 541C640 541 608 541 576 541C544 541 512 541 480 541C448 541 416 541 384 541C352 541 320 541 288 541C256 541 224 541 192 541C160 541 128 541 96 541C64 541 32 541 16 541L0 541Z" fill="#081770"></path><path d="M0 501L16 498.2C32 495.3 64 489.7 96 485.8C128 482 160 480 192 481.8C224 483.7 256 489.3 288 491C320 492.7 352 490.3 384 491.7C416 493 448 498 480 499.2C512 500.3 544 497.7 576 490.8C608 484 640 473 672 468.2C704 463.3 736 464.7 768 467C800 469.3 832 472.7 864 473.2C896 473.7 928 471.3 944 470.2L960 469L960 541L944 541C928 541 896 541 864 541C832 541 800 541 768 541C736 541 704 541 672 541C640 541 608 541 576 541C544 541 512 541 480 541C448 541 416 541 384 541C352 541 320 541 288 541C256 541 224 541 192 541C160 541 128 541 96 541C64 541 32 541 16 541L0 541Z" fill="#00165c"></path><path d="M0 495L16 498.7C32 502.3 64 509.7 96 512C128 514.3 160 511.7 192 512.7C224 513.7 256 518.3 288 519.3C320 520.3 352 517.7 384 518C416 518.3 448 521.7 480 518.2C512 514.7 544 504.3 576 500.3C608 496.3 640 498.7 672 502.8C704 507 736 513 768 516.5C800 520 832 521 864 521.2C896 521.3 928 520.7 944 520.3L960 520L960 541L944 541C928 541 896 541 864 541C832 541 800 541 768 541C736 541 704 541 672 541C640 541 608 541 576 541C544 541 512 541 480 541C448 541 416 541 384 541C352 541 320 541 288 541C256 541 224 541 192 541C160 541 128 541 96 541C64 541 32 541 16 541L0 541Z" fill="#001347"></path></svg>